<?xml version="1.0" encoding="UTF-8" standalone="no"?>
<svg
   xmlns:dc="http://purl.org/dc/elements/1.1/"
   xmlns:cc="http://creativecommons.org/ns#"
   xmlns:rdf="http://www.w3.org/1999/02/22-rdf-syntax-ns#"
   xmlns:svg="http://www.w3.org/2000/svg"
   xmlns="http://www.w3.org/2000/svg"
   xmlns:xlink="http://www.w3.org/1999/xlink"
   xmlns:sodipodi="http://sodipodi.sourceforge.net/DTD/sodipodi-0.dtd"
   xmlns:inkscape="http://www.inkscape.org/namespaces/inkscape"
   width="1024"
   height="1024"
   viewBox="0 0 270.93333 270.93334"
   version="1.1"
   id="svg8"
   inkscape:version="1.0.1 (c497b03c, 2020-09-10)"
   sodipodi:docname="Logo.svg">
  <defs
     id="defs2">
    <linearGradient
       inkscape:collect="always"
       id="linearGradient984">
      <stop
         style="stop-color:#3f7eaa;stop-opacity:1;"
         offset="0"
         id="stop980" />
      <stop
         style="stop-color:#b74cfc;stop-opacity:1"
         offset="1"
         id="stop982" />
    </linearGradient>
    <linearGradient
       inkscape:collect="always"
       xlink:href="#linearGradient984"
       id="linearGradient986"
       x1="187.08867"
       y1="203.12485"
       x2="82.319016"
       y2="21.916101"
       gradientUnits="userSpaceOnUse"
       gradientTransform="translate(-4.2763124)" />
  </defs>
  <sodipodi:namedview
     id="base"
     pagecolor="#ffffff"
     bordercolor="#666666"
     borderopacity="1.0"
     inkscape:pageopacity="0.0"
     inkscape:pageshadow="2"
     inkscape:zoom="0.49497475"
     inkscape:cx="579.41293"
     inkscape:cy="396.07286"
     inkscape:document-units="mm"
     inkscape:current-layer="layer3"
     inkscape:document-rotation="0"
     showgrid="false"
     units="px"
     inkscape:window-width="1920"
     inkscape:window-height="1035"
     inkscape:window-x="0"
     inkscape:window-y="23"
     inkscape:window-maximized="0" />
  <metadata
     id="metadata5">
    <rdf:RDF>
      <cc:Work
         rdf:about="">
        <dc:format>image/svg+xml</dc:format>
        <dc:type
           rdf:resource="http://purl.org/dc/dcmitype/StillImage" />
        <dc:title></dc:title>
      </cc:Work>
    </rdf:RDF>
  </metadata>
  <g
     inkscape:groupmode="layer"
     id="layer2"
     inkscape:label="Top Card"
     style="display:inline;mix-blend-mode:normal">
    <path
       style="fill:#3f7eaa;fill-opacity:1;stroke-width:2.85714"
       d=""
       id="path965"
       transform="scale(0.26458333)" />
    <path
       style="fill:#3f7eaa;fill-opacity:1;stroke-width:2.85714"
       d=""
       id="path967"
       transform="scale(0.26458333)" />
    <path
       style="fill:url(#linearGradient986);fill-opacity:1;stroke-width:0.53454"
       d="m 147.71195,255.80419 c -3.94794,-0.56276 -6.30861,-1.52594 -9.3004,-3.79469 l -2.74435,-2.08111 -9.27911,-16.338 C 114.61695,212.86461 55.416828,102.69961 44.986458,82.110804 c -7.68975,-15.179012 -7.87449,-15.607955 -8.07474,-18.747936 -0.27,-4.233695 0.59105,-7.734237 2.59153,-10.535728 l 1.62956,-2.282058 40.96649,-22.010277 C 114.71437,11.011538 123.63226,6.3851978 125.8445,5.8410678 c 2.21661,-0.54519 3.5423,-0.43019 6.55347,0.5685 2.07612,0.68857 4.46415,1.8117099 5.30674,2.49587 3.43873,2.7921302 7.96951,10.9007512 54.66191,97.8268722 l 46.66853,86.88174 0.006,4.83384 c 0.004,3.46876 -0.38625,5.7778 -1.38303,8.17644 l -1.38905,3.34259 -42.99714,23.1013 -42.99715,23.1013 -2.56285,-0.36532 z m -39.6213,-151.6466 c 0.37633,-1.52108 -2.58974,-20.142846 -3.47778,-21.834455 l -0.60236,-1.147461 1.63991,0.438305 c 1.95391,0.522223 3.69207,-0.284323 4.30187,-1.996163 0.41168,-1.155651 0.53136,-1.219951 1.72223,-0.925312 1.73978,0.430448 3.74025,-0.744806 4.10428,-2.411216 0.28992,-1.327119 0.39594,-1.271672 3.29094,1.720994 4.5489,4.702367 12.88383,12.349603 14.08874,12.926302 0.64942,0.310828 1.31292,0.231847 1.68569,-0.200659 0.9157,-1.062405 -0.55891,-3.390629 -5.73566,-9.055903 -2.4937,-2.729027 -6.06519,-7.142886 -7.93663,-9.808576 -1.87145,-2.665691 -3.79964,-5.179533 -4.28486,-5.586322 -0.48556,-0.407064 1.20857,-0.211499 3.76787,0.434948 3.98637,1.006916 8.66416,1.319543 20.29415,1.356302 1.60095,0.0051 2.78032,-1.060429 2.25533,-2.037561 -0.61969,-1.153384 -5.5623,-2.553005 -8.43038,-2.38727 -3.68801,0.213131 -8.48667,-0.556968 -13.42782,-2.154919 -2.2216,-0.718457 -5.29228,-1.451729 -6.82374,-1.629498 -2.25654,-0.261932 -2.74748,-0.505975 -2.58937,-1.287148 0.10731,-0.530167 0.43716,-1.093989 0.73302,-1.252944 1.63818,-0.880153 4.85067,-7.475541 4.2163,-8.656255 -0.16112,-0.299882 -0.0844,-1.130745 0.17056,-1.846367 0.67689,-1.900184 0.83634,-14.350145 0.19898,-15.536439 -0.29898,-0.556467 -0.80593,-0.864738 -1.12657,-0.685048 -1.02423,0.57399 -1.66533,2.85581 -2.70637,9.632448 -1.03689,6.74963 -2.1593,11.031848 -2.83799,10.827558 -0.2084,-0.06273 -0.6113,-1.874324 -0.89532,-4.025767 -0.55055,-4.170237 -3.25625,-10.884364 -4.68346,-11.621873 -1.46354,-0.75628 -1.95366,0.844498 -1.1301,3.690991 0.44406,1.534816 0.87868,3.571451 0.96583,4.525856 l 0.15846,1.735283 -1.60705,-2.221944 c -1.86464,-2.578104 -5.631792,-4.33829 -8.931708,-4.173304 -2.602844,0.130135 -6.583894,2.269053 -8.129154,4.367592 -1.57339,2.136726 -2.58652,6.874379 -1.80333,8.432826 0.3394,0.675367 0.67549,1.715683 0.74687,2.311815 0.11531,0.963035 -0.0111,0.963316 -1.13412,0.0025 -0.69514,-0.594738 -2.09891,-1.968827 -3.11947,-3.05353 -2.03774,-2.165794 -3.85017,-2.699013 -4.28328,-1.260137 -0.39118,1.299582 4.64123,8.15675 8.07176,10.998591 1.54609,1.280783 2.76106,2.494872 2.69993,2.697979 -0.19298,0.641106 -6.87802,-1.778722 -11.86377,-4.294406 -4.84486,-2.444595 -7.63522,-3.163997 -8.23674,-2.123573 -0.65583,1.134347 0.68235,2.300546 6.93538,6.044065 9.12304,5.461724 10.5394,5.978974 15.54555,5.677189 2.35543,-0.141991 4.333154,-0.164076 4.394944,-0.04908 0.0618,0.114999 -0.34813,0.881387 -0.910924,1.703085 -0.56278,0.821697 -1.93103,4.389583 -3.04055,7.928638 -1.27599,4.070103 -2.88055,7.762822 -4.36648,10.049021 -2.59857,3.99806 -4.63693,9.289458 -4.0205,10.436795 0.63217,1.176607 2.17177,0.64627 3.33837,-1.149959 6.59234,-10.150318 8.433244,-13.371133 9.647124,-16.878506 1.327086,-3.834429 1.444136,-4.000583 1.808626,-2.567189 0.21433,0.842925 1.38307,3.847274 2.59718,6.676334 1.214122,2.829061 2.807562,7.742558 3.540982,10.918881 1.92173,8.322656 2.02825,8.641666 3.12985,9.373486 1.24369,0.82622 1.67442,0.60947 2.08476,-1.04904 z"
       id="path975" />
  </g>
</svg>
