<?xml version="1.0" encoding="UTF-8" standalone="no"?>
<svg
   width="5632"
   height="1024"
   viewBox="0 0 1082.675 270.93334"
   version="1.1"
   id="svg403"
   inkscape:version="1.1.1 (3bf5ae0, 2021-09-20)"
   sodipodi:docname="LogoWithText.svg"
   xmlns:inkscape="http://www.inkscape.org/namespaces/inkscape"
   xmlns:sodipodi="http://sodipodi.sourceforge.net/DTD/sodipodi-0.dtd"
   xmlns:xlink="http://www.w3.org/1999/xlink"
   xmlns="http://www.w3.org/2000/svg"
   xmlns:svg="http://www.w3.org/2000/svg">
  <sodipodi:namedview
     id="namedview405"
     pagecolor="#ffffff"
     bordercolor="#666666"
     borderopacity="1.0"
     inkscape:pageshadow="2"
     inkscape:pageopacity="0.0"
     inkscape:pagecheckerboard="0"
     inkscape:document-units="mm"
     showgrid="false"
     units="px"
     inkscape:zoom="0.16500938"
     inkscape:cx="2727.1177"
     inkscape:cy="1021.1541"
     inkscape:window-width="1920"
     inkscape:window-height="1000"
     inkscape:window-x="0"
     inkscape:window-y="0"
     inkscape:window-maximized="1"
     inkscape:current-layer="layer1" />
  <defs
     id="defs400">
    <rect
       x="972.90045"
       y="160.93655"
       width="3063.0105"
       height="769.4325"
       id="rect7710" />
    <linearGradient
       inkscape:collect="always"
       xlink:href="#linearGradient984"
       id="linearGradient986"
       x1="187.08867"
       y1="203.12485"
       x2="82.319016"
       y2="21.916101"
       gradientUnits="userSpaceOnUse"
       gradientTransform="matrix(0.87490304,0,0,0.78679674,-7.9191565,36.854513)" />
    <linearGradient
       inkscape:collect="always"
       id="linearGradient984">
      <stop
         style="stop-color:#3f7eaa;stop-opacity:1;"
         offset="0"
         id="stop980" />
      <stop
         style="stop-color:#b74cfc;stop-opacity:1"
         offset="1"
         id="stop982" />
    </linearGradient>
  </defs>
  <g
     inkscape:label="Layer 1"
     inkscape:groupmode="layer"
     id="layer1">
    <path
       style="display:inline;mix-blend-mode:normal;fill:url(#linearGradient986);fill-opacity:1;stroke-width:0.443498"
       d="m 125.05584,238.12042 c -3.45407,-0.44278 -5.51943,-1.20061 -8.13695,-2.98565 l -2.40104,-1.63741 -8.11832,-12.85469 C 96.100921,204.33569 44.306553,117.65823 35.180991,101.45903 28.453205,89.516229 28.291575,89.178738 28.116376,86.708211 27.880152,83.377154 28.633487,80.622939 30.383713,78.418735 L 31.80942,76.623219 67.651127,59.305605 C 96.186154,45.518356 103.98844,41.878366 105.92394,41.450246 c 1.93932,-0.428954 3.09917,-0.338472 5.73365,0.447294 1.8164,0.541765 3.9057,1.425448 4.64288,1.963743 3.00856,2.196839 6.97255,8.576675 47.82387,76.969867 l 40.83044,68.35827 0.005,3.80325 c 0.004,2.7292 -0.33793,4.54595 -1.21002,6.43319 l -1.21528,2.62994 -37.61833,18.17603 -37.61834,18.17603 -2.24224,-0.28744 z M 90.39104,118.80536 c 0.329252,-1.19678 -2.265771,-15.84832 -3.04272,-17.17927 l -0.527007,-0.90282 1.434762,0.34486 c 1.709482,0.41088 3.230204,-0.22371 3.763719,-1.570579 0.360181,-0.909262 0.464889,-0.959853 1.506785,-0.728032 1.522139,0.338675 3.272357,-0.586011 3.590848,-1.897137 0.253652,-1.044173 0.346409,-1.000547 2.879253,1.354073 3.97985,3.699805 11.2721,9.716625 12.32628,10.170375 0.56818,0.24455 1.14868,0.18241 1.47482,-0.15788 0.80114,-0.8359 -0.489,-2.66774 -5.01815,-7.12516 -2.18175,-2.147185 -5.30645,-5.619995 -6.94378,-7.717352 -1.63734,-2.097357 -3.324318,-4.075239 -3.748838,-4.3953 -0.424818,-0.320276 1.057381,-0.166406 3.296518,0.342216 3.48769,0.792238 7.5803,1.038212 17.75542,1.067134 1.40067,0.004 2.43251,-0.834342 1.97319,-1.603146 -0.54217,-0.907479 -4.86647,-2.008696 -7.37576,-1.878296 -3.22666,0.16769 -7.42502,-0.438221 -11.74804,-1.695484 -1.94369,-0.565279 -4.630236,-1.142215 -5.970115,-1.282083 -1.974254,-0.206088 -2.40378,-0.3981 -2.265448,-1.012724 0.09389,-0.417134 0.382473,-0.860747 0.641321,-0.985813 1.433249,-0.692501 4.243866,-5.881731 3.688854,-6.810713 -0.140964,-0.235946 -0.07384,-0.889666 0.149224,-1.452715 0.592213,-1.495059 0.731716,-11.290648 0.174088,-12.22402 -0.261579,-0.437826 -0.705111,-0.680373 -0.98564,-0.538993 -0.896102,0.451613 -1.457002,2.246942 -2.367811,7.578778 -0.907178,5.310587 -1.889179,8.679822 -2.482967,8.519088 -0.18233,-0.04936 -0.534828,-1.474712 -0.783318,-3.167461 -0.481678,-3.281129 -2.848903,-8.563782 -4.097574,-9.144052 -1.280455,-0.595038 -1.709263,0.664449 -0.988728,2.90406 0.38851,1.207588 0.76876,2.810006 0.845008,3.560929 l 0.138637,1.365315 -1.406013,-1.748218 c -1.631379,-2.028444 -4.927272,-3.413353 -7.814378,-3.283542 -2.277236,0.102389 -5.760269,1.785283 -7.112222,3.436407 -1.376563,1.681169 -2.262954,5.408739 -1.577739,6.63492 0.296942,0.531376 0.590989,1.349894 0.653439,1.818928 0.100885,0.757713 -0.0097,0.757934 -0.992245,0.002 -0.60818,-0.467938 -1.836343,-1.549066 -2.729234,-2.402507 -1.782825,-1.70404 -3.368525,-2.123575 -3.747454,-0.991472 -0.342245,1.022507 4.060626,6.417705 7.062007,8.653656 1.352679,1.007716 2.41566,1.962957 2.362177,2.122761 -0.168839,0.50442 -6.017601,-1.399493 -10.379648,-3.378825 -4.238783,-1.923399 -6.680078,-2.489422 -7.206349,-1.67082 -0.573788,0.8925 0.59699,1.810062 6.067785,4.755451 7.981775,4.297266 9.220953,4.704237 13.600849,4.466793 2.060773,-0.111718 3.791089,-0.129094 3.84515,-0.03862 0.05407,0.09048 -0.30458,0.693473 -0.796971,1.339982 -0.492378,0.646509 -1.689464,3.45371 -2.660186,6.238227 -1.116368,3.202341 -2.520202,6.107761 -3.820247,7.906541 -2.273496,3.14566 -4.056864,7.30891 -3.517547,8.21163 0.553087,0.92575 1.900088,0.50848 2.92075,-0.90479 5.767658,-7.98623 7.378271,-10.52036 8.440298,-13.27995 1.161071,-3.016912 1.263479,-3.147641 1.582372,-2.019852 0.187518,0.663211 1.210052,3.027022 2.272281,5.252922 1.062239,2.22589 2.456344,6.09182 3.098016,8.59094 1.681327,6.54823 1.774522,6.79923 2.738315,7.37502 1.088108,0.65007 1.464955,0.47953 1.823963,-0.82538 z"
       id="path975" />
    <text
       xml:space="preserve"
       style="font-style:normal;font-variant:normal;font-weight:normal;font-stretch:normal;font-size:228px;line-height:1.25;font-family: 'Roboto', sans-serif;-inkscape-font-specification:sans-serif;fill:#3f7eaa;fill-opacity:1;stroke:none;stroke-width:0.318393"
       x="300.93161"
       y="205.32964"
       id="text17121"><tspan
         sodipodi:role="line"
         id="tspan17119"
         style="font-style:normal;font-variant:normal;font-weight:normal;font-stretch:normal;font-size:228px;font-family:'Roboto', sans-serif;-inkscape-font-specification:'IBM Plex Sans';fill:#3f7eaa;fill-opacity:1;stroke-width:0.318393"
         x="300.93161"
         y="205.32964"><tspan
   style="fill:#ffffff;fill-opacity:1"
   id="tspan26226">Taro</tspan>Read</tspan></text>
  </g>
</svg>