<?xml version="1.0" standalone="no"?>
<!DOCTYPE svg PUBLIC "-//W3C//DTD SVG 20010904//EN"
 "http://www.w3.org/TR/2001/REC-SVG-20010904/DTD/svg10.dtd">
<svg version="1.0" xmlns="http://www.w3.org/2000/svg"
 width="700.000000pt" height="700.000000pt" viewBox="0 0 700.000000 700.000000"
 preserveAspectRatio="xMidYMid meet">
<metadata>
Created by potrace 1.14, written by Peter Selinger 2001-2017
</metadata>
<g transform="translate(0.000000,700.000000) scale(0.100000,-0.100000)"
fill="#000000" stroke="none">
<path d="M3244 6845 c-54 -16 -346 -165 -834 -428 -281 -151 -314 -168 -405
-217 -122 -65 -300 -161 -390 -210 -27 -15 -95 -51 -150 -80 -55 -29 -120 -64
-145 -78 -25 -13 -92 -50 -150 -80 -116 -61 -116 -61 -164 -147 -53 -93 -67
-220 -36 -325 11 -38 238 -494 355 -715 20 -38 59 -110 85 -160 26 -49 143
-270 260 -490 117 -220 241 -452 275 -515 34 -63 84 -155 110 -205 26 -49 60
-112 75 -140 30 -54 67 -124 150 -280 29 -55 61 -113 70 -130 10 -16 39 -70
65 -120 26 -49 74 -137 105 -195 32 -58 73 -134 92 -170 58 -107 237 -437 262
-483 13 -23 66 -121 118 -217 100 -184 102 -187 190 -345 31 -55 71 -127 90
-161 164 -298 234 -411 277 -445 71 -55 130 -86 196 -103 111 -28 134 -27 200
9 33 18 155 83 270 145 116 62 242 129 280 150 85 46 700 376 805 432 41 22
98 53 125 68 28 15 95 51 150 80 55 29 114 60 130 70 17 10 59 33 95 52 318
170 302 159 325 213 35 78 51 171 50 280 l-1 100 -66 120 c-35 66 -83 154
-105 195 -83 155 -339 632 -438 815 -56 105 -122 226 -145 270 -23 44 -55 103
-70 130 -15 28 -48 88 -73 135 -34 65 -604 1125 -927 1725 -69 129 -172 319
-200 370 -15 28 -42 77 -60 110 -97 180 -337 612 -369 665 -125 203 -148 229
-229 266 -108 48 -180 59 -248 39z m-212 -670 c9 -36 3 -322 -10 -423 -11 -80
-46 -160 -99 -221 -49 -58 -46 -66 31 -76 27 -4 87 -18 135 -31 116 -33 107
-31 191 -49 41 -9 120 -18 175 -20 140 -4 245 -35 245 -73 0 -36 -30 -41 -226
-37 -201 4 -253 9 -349 31 -116 27 -116 29 3 -128 113 -149 128 -169 202 -250
67 -75 141 -169 153 -195 13 -30 2 -53 -26 -53 -24 0 -182 137 -355 309 -85
84 -112 101 -112 67 0 -7 -11 -23 -25 -36 -18 -17 -35 -22 -70 -22 -25 1 -45
-3 -45 -8 0 -4 -12 -23 -27 -40 -25 -30 -30 -32 -80 -28 -52 5 -62 1 -44 -17
9 -9 31 -106 46 -195 3 -19 8 -46 10 -60 3 -14 7 -41 10 -60 2 -19 9 -66 14
-105 13 -86 14 -155 2 -174 -14 -22 -51 -2 -67 36 -8 19 -28 91 -45 159 -31
129 -72 256 -132 404 -19 47 -37 94 -41 105 -6 16 -14 5 -37 -55 -38 -100 -75
-169 -177 -330 -106 -167 -131 -192 -160 -157 -22 26 11 115 111 297 26 47 74
161 107 254 33 92 67 178 75 189 27 39 20 42 -104 42 l-118 0 -104 53 c-57 29
-113 58 -123 65 -11 6 -58 36 -105 66 -89 56 -121 84 -121 108 0 37 70 23 210
-44 52 -25 111 -51 130 -59 19 -7 60 -22 90 -33 98 -37 98 -28 1 69 -85 86
-171 199 -185 247 -5 16 -2 25 12 32 24 13 46 -1 129 -82 34 -34 65 -58 69
-54 4 3 1 27 -6 52 -16 56 -16 84 0 143 28 99 88 158 197 192 108 33 223 -11
300 -115 l22 -30 1 25 c0 14 -4 41 -10 60 -31 117 -33 170 -6 170 45 0 111
-148 142 -320 14 -74 19 -89 29 -78 16 17 37 104 70 290 14 81 28 153 30 160
21 62 26 69 42 66 9 -2 20 -16 25 -33z"/>
</g>
</svg>
